<svg width="257" height="256" viewBox="0 0 257 256" fill="none" xmlns="http://www.w3.org/2000/svg">
<path d="M128.5 256C199.193 256 256.5 198.692 256.5 128C256.5 57.3075 199.193 0 128.5 0C57.808 0 0.500488 57.3075 0.500488 128C0.500488 198.692 57.808 256 128.5 256Z" fill="#0D0D0D"/>
<path d="M163.341 34.8477C111.884 34.8477 70.188 76.5436 70.188 128C70.188 179.455 111.884 221.151 163.341 221.151C214.797 221.151 256.494 179.455 256.494 128C256.494 76.5436 214.797 34.8477 163.341 34.8477ZM142.989 166.751C121.58 166.751 104.236 149.408 104.236 128C104.236 106.592 121.58 89.2476 142.989 89.2476C164.397 89.2476 181.741 106.592 181.741 128C181.741 149.408 164.397 166.751 142.989 166.751Z" fill="url(#paint0_linear_5105_31473)"/>
<path d="M93.6533 221.152C145.11 221.152 186.806 179.456 186.806 128C186.806 76.5439 145.11 34.8479 93.6533 34.8479C42.1969 34.8479 0.500488 76.5439 0.500488 128C0.500488 179.456 42.1969 221.152 93.6533 221.152ZM114.005 89.2478C135.414 89.2478 152.758 106.592 152.758 128C152.758 149.408 135.414 166.752 114.005 166.752C92.5973 166.752 75.2531 149.408 75.2531 128C75.2531 106.592 92.5973 89.2478 114.005 89.2478Z" fill="url(#paint1_linear_5105_31473)"/>
<path d="M38.0075 169.216C74.3918 205.6 133.368 205.6 169.721 169.216C206.105 132.832 206.105 73.8557 169.721 37.5038C133.336 1.11983 74.3598 1.11983 38.0075 37.5038C1.62316 73.8877 1.62316 132.864 38.0075 169.216ZM145.656 90.3357C160.793 105.472 160.793 130.016 145.656 145.152C130.52 160.288 105.976 160.288 90.8399 145.152C75.7038 130.016 75.7038 105.472 90.8399 90.3357C105.976 75.1997 130.52 75.1997 145.656 90.3357Z" fill="url(#paint2_linear_5105_31473)"/>
<path d="M218.99 86.7819C182.606 50.3979 123.629 50.3979 87.2767 86.7819C50.9244 123.166 50.8924 182.142 87.2767 218.494C123.661 254.846 182.638 254.878 218.99 218.494C255.374 182.11 255.374 123.134 218.99 86.7819ZM111.341 165.662C96.2048 150.526 96.2048 125.982 111.341 110.846C126.477 95.7098 151.021 95.7098 166.157 110.846C181.294 125.982 181.294 150.526 166.157 165.662C151.021 180.798 126.477 180.798 111.341 165.662Z" fill="url(#paint3_linear_5105_31473)"/>
<path d="M35.3442 93.1519C35.3442 144.608 77.0406 186.304 128.497 186.304C179.954 186.304 221.65 144.608 221.65 93.1519C221.65 41.696 179.954 0 128.497 0C77.0406 0 35.3442 41.696 35.3442 93.1519ZM167.249 113.504C167.249 134.912 149.905 152.256 128.497 152.256C107.089 152.256 89.7447 134.912 89.7447 113.504C89.7447 92.0959 107.089 74.7519 128.497 74.7519C149.905 74.7519 167.249 92.0959 167.249 113.504Z" fill="url(#paint4_linear_5105_31473)"/>
<path d="M221.65 162.848C221.65 111.392 179.954 69.6963 128.497 69.6963C77.0406 69.6963 35.3442 111.392 35.3442 162.848C35.3442 214.304 77.0406 256 128.497 256C179.954 256 221.65 214.304 221.65 162.848ZM89.7447 142.496C89.7447 121.088 107.089 103.744 128.497 103.744C149.905 103.744 167.249 121.088 167.249 142.496C167.249 163.904 149.905 181.248 128.497 181.248C107.089 181.248 89.7447 163.904 89.7447 142.496Z" fill="url(#paint5_linear_5105_31473)"/>
<path d="M87.2887 37.504C50.9044 73.888 50.9044 132.864 87.2887 169.216C123.673 205.6 182.65 205.6 219.002 169.216C255.386 132.832 255.386 73.856 219.002 37.504C182.618 1.12008 123.641 1.12008 87.2887 37.504ZM166.169 145.152C151.033 160.288 126.489 160.288 111.353 145.152C96.2168 130.016 96.2168 105.472 111.353 90.336C126.489 75.2 151.033 75.2 166.169 90.336C181.306 105.472 181.306 130.016 166.169 145.152Z" fill="url(#paint6_linear_5105_31473)"/>
<path d="M169.721 218.494C206.105 182.11 206.105 123.134 169.721 86.7821C133.336 50.3982 74.3598 50.3982 38.0075 86.7821C1.62316 123.166 1.62316 182.142 38.0075 218.494C74.3918 254.878 133.368 254.878 169.721 218.494ZM90.8399 110.846C105.976 95.7101 130.52 95.7101 145.656 110.846C160.793 125.982 160.793 150.526 145.656 165.662C130.52 180.798 105.976 180.798 90.8399 165.662C75.7038 150.526 75.7038 125.982 90.8399 110.846Z" fill="url(#paint7_linear_5105_31473)"/>
<defs>
<linearGradient id="paint0_linear_5105_31473" x1="163.341" y1="221.151" x2="163.341" y2="34.8477" gradientUnits="userSpaceOnUse">
<stop offset="0.6" stop-color="#FC004B" stop-opacity="0"/>
<stop offset="1" stop-color="#FC004B"/>
</linearGradient>
<linearGradient id="paint1_linear_5105_31473" x1="93.6533" y1="34.8479" x2="93.6533" y2="221.152" gradientUnits="userSpaceOnUse">
<stop offset="0.6" stop-color="#FC004B" stop-opacity="0"/>
<stop offset="1" stop-color="#FC004B"/>
</linearGradient>
<linearGradient id="paint2_linear_5105_31473" x1="169.735" y1="37.52" x2="38.0208" y2="169.235" gradientUnits="userSpaceOnUse">
<stop offset="0.6" stop-color="#FC004B" stop-opacity="0"/>
<stop offset="1" stop-color="#FC004B"/>
</linearGradient>
<linearGradient id="paint3_linear_5105_31473" x1="87.2984" y1="218.527" x2="219.035" y2="86.7887" gradientUnits="userSpaceOnUse">
<stop offset="0.6" stop-color="#FC004B" stop-opacity="0"/>
<stop offset="1" stop-color="#FC004B"/>
</linearGradient>
<linearGradient id="paint4_linear_5105_31473" x1="221.618" y1="93.1519" x2="35.3442" y2="93.1519" gradientUnits="userSpaceOnUse">
<stop offset="0.6" stop-color="#FC004B" stop-opacity="0"/>
<stop offset="1" stop-color="#FC004B"/>
</linearGradient>
<linearGradient id="paint5_linear_5105_31473" x1="35.3442" y1="162.88" x2="221.65" y2="162.88" gradientUnits="userSpaceOnUse">
<stop offset="0.6" stop-color="#FC004B" stop-opacity="0"/>
<stop offset="1" stop-color="#FC004B"/>
</linearGradient>
<linearGradient id="paint6_linear_5105_31473" x1="219.028" y1="169.221" x2="87.291" y2="37.4828" gradientUnits="userSpaceOnUse">
<stop offset="0.6" stop-color="#FC004B" stop-opacity="0"/>
<stop offset="1" stop-color="#FC004B"/>
</linearGradient>
<linearGradient id="paint7_linear_5105_31473" x1="37.9939" y1="86.7718" x2="169.731" y2="218.51" gradientUnits="userSpaceOnUse">
<stop offset="0.6" stop-color="#FC004B" stop-opacity="0"/>
<stop offset="1" stop-color="#FC004B"/>
</linearGradient>
</defs>
</svg>
