<svg width="624" height="150" viewBox="0 0 624 150" fill="none" xmlns="http://www.w3.org/2000/svg">
<path d="M527.85 46.8301V103.18H512.35V46.8301H527.85Z" fill="black"/>
<path d="M186.59 46.8301V103.18H171.09V46.8301H186.59Z" fill="black"/>
<path d="M294.429 80.5205H321.249C328.489 80.5205 334.919 75.9005 337.229 69.0505L278.949 69.0205V69.0505V103.171H338.079L342.309 90.6205H294.429V80.5205Z" fill="black"/>
<path d="M339.489 59.3601L343.719 46.8301H278.949C278.949 53.7501 284.559 59.3601 291.479 59.3601H339.489Z" fill="black"/>
<path d="M605.339 103.18H623.309L589.319 46.8301H572.119L538.109 103.18H555.869L561.869 93.0201H570.759C577.679 93.0201 583.279 87.4001 583.269 80.4901H569.279L580.509 61.4801L605.359 103.19L605.339 103.18Z" fill="black"/>
<path d="M268.68 103.17H253.01L212.48 66.4203V103.17H196.85V46.8203H212.49L253.02 83.7003V46.8203H268.7V103.17H268.68Z" fill="black"/>
<path d="M502.1 46.8203H446.27C439.33 46.8203 433.7 52.4303 433.67 59.3703H459V103.18H474.53V59.3703H489.5C496.44 59.3703 502.07 53.7603 502.1 46.8203Z" fill="black"/>
<path d="M403.099 81.4998C410.579 81.4998 423.409 81.3398 423.409 63.7698C423.409 49.0998 411.019 46.8398 403.109 46.8398H353.979C353.979 53.7598 359.579 59.3798 366.499 59.3698H401.859C403.769 59.3698 407.659 59.4898 407.659 64.2398C407.659 68.9898 403.989 68.9898 401.629 68.9898L353.959 68.9698L384.549 95.0098C390.739 100.28 398.599 103.17 406.729 103.17H420.229L391.479 81.4998H403.099Z" fill="black"/>
<path d="M95.4198 20.4199C65.2798 20.4199 40.8398 44.8599 40.8398 74.9999C40.8398 105.14 65.2798 129.58 95.4198 129.58C125.56 129.58 150 105.14 150 74.9999C150 44.8599 125.56 20.4199 95.4198 20.4199ZM83.4998 97.7099C70.9598 97.7099 60.7898 87.5399 60.7898 74.9999C60.7898 62.4599 70.9598 52.2899 83.4998 52.2899C96.0398 52.2899 106.21 62.4599 106.21 74.9999C106.21 87.5399 96.0398 97.7099 83.4998 97.7099Z" fill="url(#paint0_linear_3458_3428)"/>
<path d="M54.58 129.58C84.72 129.58 109.16 105.14 109.16 74.9999C109.16 44.8599 84.72 20.4199 54.58 20.4199C24.44 20.4199 0 44.8599 0 74.9999C0 105.14 24.44 129.58 54.58 129.58ZM66.5 52.2899C79.04 52.2899 89.21 62.4599 89.21 74.9999C89.21 87.5399 79.04 97.7099 66.5 97.7099C53.96 97.7099 43.79 87.5399 43.79 74.9999C43.79 62.4599 53.96 52.2899 66.5 52.2899Z" fill="url(#paint1_linear_3458_3428)"/>
<path d="M21.9708 99.1498C43.2808 120.46 77.8408 120.46 99.1508 99.1498C120.461 77.8398 120.461 43.2798 99.1508 21.9698C77.8408 0.659805 43.2808 0.659805 21.9708 21.9698C0.660782 43.2798 0.660782 77.8398 21.9708 99.1498ZM85.0508 52.9398C93.9208 61.8098 93.9208 76.1798 85.0508 85.0498C76.1808 93.9198 61.8108 93.9198 52.9408 85.0498C44.0708 76.1798 44.0708 61.8098 52.9408 52.9398C61.8108 44.0698 76.1808 44.0698 85.0508 52.9398Z" fill="url(#paint2_linear_3458_3428)"/>
<path d="M128.03 50.8497C106.72 29.5397 72.1597 29.5397 50.8497 50.8497C29.5397 72.1597 29.5397 106.72 50.8497 128.03C72.1597 149.34 106.72 149.34 128.03 128.03C149.34 106.72 149.34 72.1597 128.03 50.8497ZM64.9497 97.0597C56.0797 88.1897 56.0797 73.8197 64.9497 64.9497C73.8197 56.0797 88.1897 56.0797 97.0597 64.9497C105.93 73.8197 105.93 88.1897 97.0597 97.0597C88.1897 105.93 73.8197 105.93 64.9497 97.0597Z" fill="url(#paint3_linear_3458_3428)"/>
<path d="M20.4199 54.58C20.4199 84.72 44.8599 109.16 74.9999 109.16C105.14 109.16 129.58 84.72 129.58 54.58C129.58 24.44 105.14 0 74.9999 0C44.8599 0 20.4199 24.44 20.4199 54.58ZM97.7099 66.5C97.7099 79.04 87.5399 89.21 74.9999 89.21C62.4599 89.21 52.2899 79.04 52.2899 66.5C52.2899 53.96 62.4599 43.79 74.9999 43.79C87.5399 43.79 97.7099 53.96 97.7099 66.5Z" fill="url(#paint4_linear_3458_3428)"/>
<path d="M129.58 95.4198C129.58 65.2798 105.14 40.8398 74.9999 40.8398C44.8599 40.8398 20.4199 65.2798 20.4199 95.4198C20.4199 125.56 44.8599 150 74.9999 150C105.14 150 129.58 125.56 129.58 95.4198ZM52.2899 83.4998C52.2899 70.9598 62.4599 60.7898 74.9999 60.7898C87.5399 60.7898 97.7099 70.9598 97.7099 83.4998C97.7099 96.0398 87.5399 106.21 74.9999 106.21C62.4599 106.21 52.2899 96.0398 52.2899 83.4998Z" fill="url(#paint5_linear_3458_3428)"/>
<path d="M50.8497 21.9698C29.5397 43.2798 29.5397 77.8398 50.8497 99.1498C72.1597 120.46 106.72 120.46 128.03 99.1498C149.34 77.8398 149.34 43.2798 128.03 21.9698C106.72 0.659805 72.1597 0.659805 50.8497 21.9698ZM97.0597 85.0498C88.1897 93.9198 73.8197 93.9198 64.9497 85.0498C56.0797 76.1798 56.0797 61.8098 64.9497 52.9398C73.8197 44.0698 88.1897 44.0698 97.0597 52.9398C105.93 61.8098 105.93 76.1798 97.0597 85.0498Z" fill="url(#paint6_linear_3458_3428)"/>
<path d="M99.1508 128.03C120.461 106.72 120.461 72.1597 99.1508 50.8497C77.8408 29.5397 43.2808 29.5397 21.9708 50.8497C0.660782 72.1597 0.660782 106.72 21.9708 128.03C43.2808 149.34 77.8408 149.34 99.1508 128.03ZM52.9408 64.9497C61.8108 56.0797 76.1808 56.0797 85.0508 64.9497C93.9208 73.8197 93.9208 88.1897 85.0508 97.0597C76.1808 105.93 61.8108 105.93 52.9408 97.0597C44.0708 88.1897 44.0708 73.8197 52.9408 64.9497Z" fill="url(#paint7_linear_3458_3428)"/>
<defs>
<linearGradient id="paint0_linear_3458_3428" x1="95.4198" y1="129.58" x2="95.4198" y2="20.4199" gradientUnits="userSpaceOnUse">
<stop offset="0.6" stop-color="#FC004B" stop-opacity="0"/>
<stop offset="1" stop-color="#FC004B"/>
</linearGradient>
<linearGradient id="paint1_linear_3458_3428" x1="54.58" y1="20.4299" x2="54.58" y2="129.58" gradientUnits="userSpaceOnUse">
<stop offset="0.6" stop-color="#FC004B" stop-opacity="0"/>
<stop offset="1" stop-color="#FC004B"/>
</linearGradient>
<linearGradient id="paint2_linear_3458_3428" x1="99.1474" y1="21.9673" x2="21.9667" y2="99.148" gradientUnits="userSpaceOnUse">
<stop offset="0.6" stop-color="#FC004B" stop-opacity="0"/>
<stop offset="1" stop-color="#FC004B"/>
</linearGradient>
<linearGradient id="paint3_linear_3458_3428" x1="50.8413" y1="128.031" x2="128.029" y2="50.8435" gradientUnits="userSpaceOnUse">
<stop offset="0.6" stop-color="#FC004B" stop-opacity="0"/>
<stop offset="1" stop-color="#FC004B"/>
</linearGradient>
<linearGradient id="paint4_linear_3458_3428" x1="129.58" y1="54.58" x2="20.4199" y2="54.58" gradientUnits="userSpaceOnUse">
<stop offset="0.6" stop-color="#FC004B" stop-opacity="0"/>
<stop offset="1" stop-color="#FC004B"/>
</linearGradient>
<linearGradient id="paint5_linear_3458_3428" x1="20.4299" y1="95.4198" x2="129.58" y2="95.4198" gradientUnits="userSpaceOnUse">
<stop offset="0.6" stop-color="#FC004B" stop-opacity="0"/>
<stop offset="1" stop-color="#FC004B"/>
</linearGradient>
<linearGradient id="paint6_linear_3458_3428" x1="128.038" y1="99.1519" x2="50.85" y2="21.9641" gradientUnits="userSpaceOnUse">
<stop offset="0.6" stop-color="#FC004B" stop-opacity="0"/>
<stop offset="1" stop-color="#FC004B"/>
</linearGradient>
<linearGradient id="paint7_linear_3458_3428" x1="21.9748" y1="50.8468" x2="99.1555" y2="128.027" gradientUnits="userSpaceOnUse">
<stop offset="0.6" stop-color="#FC004B" stop-opacity="0"/>
<stop offset="1" stop-color="#FC004B"/>
</linearGradient>
</defs>
</svg>
